<mxfile host="app.diagrams.net" modified="2022-10-21T10:05:42.292Z" agent="5.0 (Windows NT 10.0; Win64; x64) AppleWebKit/537.36 (KHTML, like Gecko) Chrome/106.0.0.0 Safari/537.36" etag="67wz7aTl8OR4WVaLTKC6" version="20.4.2" type="github">
  <diagram id="h2gcmPvjwXwlQ4TGfKZ5" name="페이지-1">
    <mxGraphModel dx="782" dy="436" grid="1" gridSize="10" guides="1" tooltips="1" connect="1" arrows="1" fold="1" page="1" pageScale="1" pageWidth="827" pageHeight="1169" math="0" shadow="0">
      <root>
        <mxCell id="0" />
        <mxCell id="1" parent="0" />
        <mxCell id="IPxKtV7yVm_dmG0t6wno-19" value="" style="rounded=0;whiteSpace=wrap;html=1;fontSize=14;fillColor=#e1d5e7;strokeColor=#9673a6;" vertex="1" parent="1">
          <mxGeometry x="465" y="320" width="170" height="220" as="geometry" />
        </mxCell>
        <mxCell id="IPxKtV7yVm_dmG0t6wno-7" style="edgeStyle=orthogonalEdgeStyle;rounded=0;orthogonalLoop=1;jettySize=auto;html=1;entryX=0.01;entryY=0.818;entryDx=0;entryDy=0;entryPerimeter=0;fontSize=20;" edge="1" parent="1" source="IPxKtV7yVm_dmG0t6wno-1" target="IPxKtV7yVm_dmG0t6wno-4">
          <mxGeometry relative="1" as="geometry">
            <Array as="points" />
          </mxGeometry>
        </mxCell>
        <mxCell id="IPxKtV7yVm_dmG0t6wno-1" value="&lt;font style=&quot;font-size: 20px;&quot;&gt;CSR&lt;/font&gt;" style="rounded=0;whiteSpace=wrap;html=1;fillColor=#fff2cc;strokeColor=#d6b656;" vertex="1" parent="1">
          <mxGeometry x="110" y="200" width="120" height="60" as="geometry" />
        </mxCell>
        <mxCell id="IPxKtV7yVm_dmG0t6wno-2" value="" style="shape=actor;whiteSpace=wrap;html=1;" vertex="1" parent="1">
          <mxGeometry x="130" y="60" width="80" height="80" as="geometry" />
        </mxCell>
        <mxCell id="IPxKtV7yVm_dmG0t6wno-3" value="Client" style="text;html=1;align=center;verticalAlign=middle;resizable=0;points=[];autosize=1;strokeColor=none;fillColor=none;fontSize=14;" vertex="1" parent="1">
          <mxGeometry x="140" y="150" width="60" height="30" as="geometry" />
        </mxCell>
        <mxCell id="IPxKtV7yVm_dmG0t6wno-4" value="" style="rounded=0;whiteSpace=wrap;html=1;fontSize=14;fillColor=#e1d5e7;strokeColor=#9673a6;" vertex="1" parent="1">
          <mxGeometry x="465" y="50" width="170" height="220" as="geometry" />
        </mxCell>
        <mxCell id="IPxKtV7yVm_dmG0t6wno-5" value="CA" style="rounded=0;whiteSpace=wrap;html=1;fontSize=20;fillColor=#dae8fc;strokeColor=#6c8ebf;" vertex="1" parent="1">
          <mxGeometry x="490" y="200" width="120" height="60" as="geometry" />
        </mxCell>
        <mxCell id="IPxKtV7yVm_dmG0t6wno-6" value="Kube API Server" style="text;html=1;align=center;verticalAlign=middle;resizable=0;points=[];autosize=1;strokeColor=none;fillColor=none;fontSize=20;" vertex="1" parent="1">
          <mxGeometry x="465" y="60" width="170" height="40" as="geometry" />
        </mxCell>
        <mxCell id="IPxKtV7yVm_dmG0t6wno-8" value="Request Signed Certification" style="text;html=1;align=center;verticalAlign=middle;resizable=0;points=[];autosize=1;strokeColor=none;fillColor=none;fontSize=15;" vertex="1" parent="1">
          <mxGeometry x="240" y="230" width="210" height="30" as="geometry" />
        </mxCell>
        <mxCell id="IPxKtV7yVm_dmG0t6wno-16" value="&lt;font style=&quot;font-size: 20px;&quot;&gt;CSR&lt;/font&gt;" style="rounded=0;whiteSpace=wrap;html=1;fillColor=#fff2cc;strokeColor=#d6b656;" vertex="1" parent="1">
          <mxGeometry x="490" y="380" width="120" height="60" as="geometry" />
        </mxCell>
        <mxCell id="IPxKtV7yVm_dmG0t6wno-17" value="" style="shape=actor;whiteSpace=wrap;html=1;" vertex="1" parent="1">
          <mxGeometry x="130" y="330" width="80" height="80" as="geometry" />
        </mxCell>
        <mxCell id="IPxKtV7yVm_dmG0t6wno-18" value="Client" style="text;html=1;align=center;verticalAlign=middle;resizable=0;points=[];autosize=1;strokeColor=none;fillColor=none;fontSize=14;" vertex="1" parent="1">
          <mxGeometry x="140" y="420" width="60" height="30" as="geometry" />
        </mxCell>
        <mxCell id="IPxKtV7yVm_dmG0t6wno-23" style="edgeStyle=orthogonalEdgeStyle;rounded=0;orthogonalLoop=1;jettySize=auto;html=1;entryX=0.5;entryY=1;entryDx=0;entryDy=0;fontSize=15;" edge="1" parent="1" source="IPxKtV7yVm_dmG0t6wno-20" target="IPxKtV7yVm_dmG0t6wno-16">
          <mxGeometry relative="1" as="geometry" />
        </mxCell>
        <mxCell id="IPxKtV7yVm_dmG0t6wno-20" value="CA" style="rounded=0;whiteSpace=wrap;html=1;fontSize=20;fillColor=#dae8fc;strokeColor=#6c8ebf;" vertex="1" parent="1">
          <mxGeometry x="490" y="470" width="120" height="60" as="geometry" />
        </mxCell>
        <mxCell id="IPxKtV7yVm_dmG0t6wno-21" value="Kube API Server" style="text;html=1;align=center;verticalAlign=middle;resizable=0;points=[];autosize=1;strokeColor=none;fillColor=none;fontSize=20;" vertex="1" parent="1">
          <mxGeometry x="465" y="330" width="170" height="40" as="geometry" />
        </mxCell>
        <mxCell id="IPxKtV7yVm_dmG0t6wno-25" value="Signing" style="text;html=1;align=center;verticalAlign=middle;resizable=0;points=[];autosize=1;strokeColor=none;fillColor=none;fontSize=15;" vertex="1" parent="1">
          <mxGeometry x="480" y="440" width="70" height="30" as="geometry" />
        </mxCell>
        <mxCell id="IPxKtV7yVm_dmG0t6wno-26" value="" style="rounded=0;whiteSpace=wrap;html=1;fontSize=14;fillColor=#e1d5e7;strokeColor=#9673a6;" vertex="1" parent="1">
          <mxGeometry x="465" y="600" width="170" height="220" as="geometry" />
        </mxCell>
        <mxCell id="IPxKtV7yVm_dmG0t6wno-34" style="edgeStyle=orthogonalEdgeStyle;rounded=0;orthogonalLoop=1;jettySize=auto;html=1;fontSize=15;" edge="1" parent="1" source="IPxKtV7yVm_dmG0t6wno-27">
          <mxGeometry relative="1" as="geometry">
            <mxPoint x="240" y="690" as="targetPoint" />
          </mxGeometry>
        </mxCell>
        <mxCell id="IPxKtV7yVm_dmG0t6wno-27" value="&lt;font style=&quot;font-size: 20px;&quot;&gt;Certificate&lt;/font&gt;" style="rounded=0;whiteSpace=wrap;html=1;fillColor=#fff2cc;strokeColor=#d6b656;" vertex="1" parent="1">
          <mxGeometry x="490" y="660" width="120" height="60" as="geometry" />
        </mxCell>
        <mxCell id="IPxKtV7yVm_dmG0t6wno-28" value="" style="shape=actor;whiteSpace=wrap;html=1;" vertex="1" parent="1">
          <mxGeometry x="130" y="610" width="80" height="80" as="geometry" />
        </mxCell>
        <mxCell id="IPxKtV7yVm_dmG0t6wno-29" value="Client" style="text;html=1;align=center;verticalAlign=middle;resizable=0;points=[];autosize=1;strokeColor=none;fillColor=none;fontSize=14;" vertex="1" parent="1">
          <mxGeometry x="140" y="700" width="60" height="30" as="geometry" />
        </mxCell>
        <mxCell id="IPxKtV7yVm_dmG0t6wno-31" value="CA" style="rounded=0;whiteSpace=wrap;html=1;fontSize=20;fillColor=#dae8fc;strokeColor=#6c8ebf;" vertex="1" parent="1">
          <mxGeometry x="490" y="750" width="120" height="60" as="geometry" />
        </mxCell>
        <mxCell id="IPxKtV7yVm_dmG0t6wno-32" value="Kube API Server" style="text;html=1;align=center;verticalAlign=middle;resizable=0;points=[];autosize=1;strokeColor=none;fillColor=none;fontSize=20;" vertex="1" parent="1">
          <mxGeometry x="465" y="610" width="170" height="40" as="geometry" />
        </mxCell>
        <mxCell id="IPxKtV7yVm_dmG0t6wno-35" value="Issueing" style="text;html=1;align=center;verticalAlign=middle;resizable=0;points=[];autosize=1;strokeColor=none;fillColor=none;fontSize=15;" vertex="1" parent="1">
          <mxGeometry x="320" y="690" width="80" height="30" as="geometry" />
        </mxCell>
        <mxCell id="IPxKtV7yVm_dmG0t6wno-36" value="" style="rounded=0;whiteSpace=wrap;html=1;fontSize=14;fillColor=#e1d5e7;strokeColor=#9673a6;" vertex="1" parent="1">
          <mxGeometry x="465" y="880" width="170" height="220" as="geometry" />
        </mxCell>
        <mxCell id="IPxKtV7yVm_dmG0t6wno-44" style="edgeStyle=orthogonalEdgeStyle;rounded=0;orthogonalLoop=1;jettySize=auto;html=1;exitX=1;exitY=0.5;exitDx=0;exitDy=0;entryX=0.029;entryY=0.818;entryDx=0;entryDy=0;entryPerimeter=0;fontSize=15;" edge="1" parent="1" source="IPxKtV7yVm_dmG0t6wno-38" target="IPxKtV7yVm_dmG0t6wno-36">
          <mxGeometry relative="1" as="geometry" />
        </mxCell>
        <mxCell id="IPxKtV7yVm_dmG0t6wno-38" value="&lt;font style=&quot;font-size: 20px;&quot;&gt;Certificate&lt;/font&gt;" style="rounded=0;whiteSpace=wrap;html=1;fillColor=#fff2cc;strokeColor=#d6b656;" vertex="1" parent="1">
          <mxGeometry x="110" y="1030" width="120" height="60" as="geometry" />
        </mxCell>
        <mxCell id="IPxKtV7yVm_dmG0t6wno-39" value="" style="shape=actor;whiteSpace=wrap;html=1;" vertex="1" parent="1">
          <mxGeometry x="130" y="890" width="80" height="80" as="geometry" />
        </mxCell>
        <mxCell id="IPxKtV7yVm_dmG0t6wno-40" value="Client" style="text;html=1;align=center;verticalAlign=middle;resizable=0;points=[];autosize=1;strokeColor=none;fillColor=none;fontSize=14;" vertex="1" parent="1">
          <mxGeometry x="140" y="980" width="60" height="30" as="geometry" />
        </mxCell>
        <mxCell id="IPxKtV7yVm_dmG0t6wno-41" value="CA" style="rounded=0;whiteSpace=wrap;html=1;fontSize=20;fillColor=#dae8fc;strokeColor=#6c8ebf;" vertex="1" parent="1">
          <mxGeometry x="490" y="1030" width="120" height="60" as="geometry" />
        </mxCell>
        <mxCell id="IPxKtV7yVm_dmG0t6wno-42" value="Kube API Server" style="text;html=1;align=center;verticalAlign=middle;resizable=0;points=[];autosize=1;strokeColor=none;fillColor=none;fontSize=20;" vertex="1" parent="1">
          <mxGeometry x="465" y="890" width="170" height="40" as="geometry" />
        </mxCell>
        <mxCell id="IPxKtV7yVm_dmG0t6wno-45" value="API Request" style="text;html=1;align=center;verticalAlign=middle;resizable=0;points=[];autosize=1;strokeColor=none;fillColor=none;fontSize=15;" vertex="1" parent="1">
          <mxGeometry x="290" y="1060" width="110" height="30" as="geometry" />
        </mxCell>
      </root>
    </mxGraphModel>
  </diagram>
</mxfile>
